<mxfile host="app.diagrams.net" modified="2023-10-13T15:09:06.267Z" agent="Mozilla/5.0 (Windows NT 10.0; Win64; x64) AppleWebKit/537.36 (KHTML, like Gecko) Chrome/117.0.0.0 Safari/537.36 Edg/117.0.2045.60" etag="JeMvy1FimjFhEBa3ZKUo" version="22.0.4" type="device">
  <diagram name="Page-1" id="GS9wCwuTAMDKNlazSSjd">
    <mxGraphModel dx="1905" dy="2029" grid="1" gridSize="10" guides="1" tooltips="1" connect="1" arrows="1" fold="1" page="1" pageScale="1" pageWidth="850" pageHeight="1100" background="none" math="0" shadow="0">
      <root>
        <mxCell id="0" />
        <mxCell id="1" parent="0" />
        <mxCell id="-zEk0gGxqN8G2U8qDTxE-7" style="rounded=0;orthogonalLoop=1;jettySize=auto;html=1;endArrow=none;endFill=0;" edge="1" parent="1" source="-zEk0gGxqN8G2U8qDTxE-1">
          <mxGeometry relative="1" as="geometry">
            <mxPoint x="220" y="490" as="targetPoint" />
          </mxGeometry>
        </mxCell>
        <mxCell id="-zEk0gGxqN8G2U8qDTxE-1" value="External FIleHost Plugin" style="rounded=0;whiteSpace=wrap;html=1;" vertex="1" parent="1">
          <mxGeometry x="350" y="470" width="120" height="40" as="geometry" />
        </mxCell>
        <mxCell id="-zEk0gGxqN8G2U8qDTxE-13" style="rounded=0;orthogonalLoop=1;jettySize=auto;html=1;fillColor=#dae8fc;strokeColor=#6c8ebf;gradientColor=#7ea6e0;" edge="1" parent="1" source="-zEk0gGxqN8G2U8qDTxE-3">
          <mxGeometry relative="1" as="geometry">
            <mxPoint x="410" y="190" as="targetPoint" />
          </mxGeometry>
        </mxCell>
        <mxCell id="-zEk0gGxqN8G2U8qDTxE-4" value="" style="image;aspect=fixed;perimeter=ellipsePerimeter;html=1;align=center;shadow=0;dashed=0;spacingTop=3;image=img/lib/active_directory/internet_cloud.svg;" vertex="1" parent="1">
          <mxGeometry x="385" y="160" width="50" height="31.5" as="geometry" />
        </mxCell>
        <mxCell id="-zEk0gGxqN8G2U8qDTxE-5" style="rounded=0;orthogonalLoop=1;jettySize=auto;html=1;entryX=0;entryY=0.5;entryDx=0;entryDy=0;entryPerimeter=0;endArrow=none;endFill=0;" edge="1" parent="1" source="-zEk0gGxqN8G2U8qDTxE-1" target="-zEk0gGxqN8G2U8qDTxE-3">
          <mxGeometry relative="1" as="geometry" />
        </mxCell>
        <mxCell id="-zEk0gGxqN8G2U8qDTxE-11" style="rounded=0;orthogonalLoop=1;jettySize=auto;html=1;entryX=0.5;entryY=1;entryDx=0;entryDy=0;fillColor=#ffcd28;gradientColor=#ffa500;strokeColor=#d79b00;startArrow=classic;startFill=1;" edge="1" parent="1" source="-zEk0gGxqN8G2U8qDTxE-6" target="-zEk0gGxqN8G2U8qDTxE-4">
          <mxGeometry relative="1" as="geometry" />
        </mxCell>
        <mxCell id="-zEk0gGxqN8G2U8qDTxE-24" style="rounded=0;orthogonalLoop=1;jettySize=auto;html=1;exitX=1;exitY=1;exitDx=0;exitDy=0;entryX=0;entryY=0.25;entryDx=0;entryDy=0;dashed=1;" edge="1" parent="1" source="-zEk0gGxqN8G2U8qDTxE-6" target="-zEk0gGxqN8G2U8qDTxE-20">
          <mxGeometry relative="1" as="geometry" />
        </mxCell>
        <mxCell id="-zEk0gGxqN8G2U8qDTxE-25" value="Manages...." style="edgeLabel;html=1;align=center;verticalAlign=middle;resizable=0;points=[];" vertex="1" connectable="0" parent="-zEk0gGxqN8G2U8qDTxE-24">
          <mxGeometry x="-0.1395" y="-3" relative="1" as="geometry">
            <mxPoint as="offset" />
          </mxGeometry>
        </mxCell>
        <mxCell id="-zEk0gGxqN8G2U8qDTxE-6" value="Control Daemon" style="shape=image;verticalLabelPosition=bottom;labelBackgroundColor=default;verticalAlign=top;aspect=fixed;imageAspect=0;image=https://networkencyclopedia.com/wp-content/uploads/2019/08/daemon-unix.jpg;" vertex="1" parent="1">
          <mxGeometry x="80" y="453.28" width="135" height="75.94" as="geometry" />
        </mxCell>
        <mxCell id="-zEk0gGxqN8G2U8qDTxE-8" value="Server.py" style="rounded=0;whiteSpace=wrap;html=1;" vertex="1" parent="1">
          <mxGeometry x="130" y="-200" width="115" height="70" as="geometry" />
        </mxCell>
        <mxCell id="-zEk0gGxqN8G2U8qDTxE-10" style="edgeStyle=orthogonalEdgeStyle;rounded=0;orthogonalLoop=1;jettySize=auto;html=1;entryX=0.5;entryY=1;entryDx=0;entryDy=0;endArrow=none;endFill=0;" edge="1" parent="1" source="-zEk0gGxqN8G2U8qDTxE-9" target="-zEk0gGxqN8G2U8qDTxE-8">
          <mxGeometry relative="1" as="geometry" />
        </mxCell>
        <mxCell id="-zEk0gGxqN8G2U8qDTxE-9" value="FileHost Plugin" style="sketch=0;aspect=fixed;pointerEvents=1;shadow=0;dashed=0;html=1;strokeColor=#C73500;labelPosition=center;verticalLabelPosition=bottom;verticalAlign=top;align=center;fillColor=#fa6800;shape=mxgraph.mscae.enterprise.plug_and_play;fontColor=#000000;" vertex="1" parent="1">
          <mxGeometry x="167.5" width="40" height="50" as="geometry" />
        </mxCell>
        <mxCell id="-zEk0gGxqN8G2U8qDTxE-12" style="rounded=0;orthogonalLoop=1;jettySize=auto;html=1;entryX=0.413;entryY=1.14;entryDx=0;entryDy=0;entryPerimeter=0;fillColor=#ffcd28;strokeColor=#d79b00;gradientColor=#ffa500;startArrow=classic;startFill=1;" edge="1" parent="1" source="-zEk0gGxqN8G2U8qDTxE-4" target="-zEk0gGxqN8G2U8qDTxE-9">
          <mxGeometry relative="1" as="geometry" />
        </mxCell>
        <mxCell id="-zEk0gGxqN8G2U8qDTxE-14" value="" style="image;points=[];aspect=fixed;html=1;align=center;shadow=0;dashed=0;image=img/lib/allied_telesis/buildings/Medium_Business_Building.svg;" vertex="1" parent="1">
          <mxGeometry x="590" y="-130" width="54.6" height="70.19999999999999" as="geometry" />
        </mxCell>
        <mxCell id="-zEk0gGxqN8G2U8qDTxE-15" value="Victim" style="verticalLabelPosition=bottom;sketch=0;html=1;fillColor=#282828;strokeColor=none;verticalAlign=top;pointerEvents=1;align=center;shape=mxgraph.cisco_safe.people_places_things_icons.icon8;" vertex="1" parent="1">
          <mxGeometry x="720" y="-250" width="19.5" height="50" as="geometry" />
        </mxCell>
        <mxCell id="-zEk0gGxqN8G2U8qDTxE-16" style="rounded=0;orthogonalLoop=1;jettySize=auto;html=1;entryX=0.824;entryY=0.085;entryDx=0;entryDy=0;entryPerimeter=0;fillColor=#dae8fc;gradientColor=#7ea6e0;strokeColor=#6c8ebf;" edge="1" parent="1" source="-zEk0gGxqN8G2U8qDTxE-15" target="-zEk0gGxqN8G2U8qDTxE-14">
          <mxGeometry relative="1" as="geometry" />
        </mxCell>
        <mxCell id="-zEk0gGxqN8G2U8qDTxE-17" style="rounded=0;orthogonalLoop=1;jettySize=auto;html=1;entryX=0.11;entryY=0.926;entryDx=0;entryDy=0;entryPerimeter=0;fillColor=#dae8fc;gradientColor=#7ea6e0;strokeColor=#6c8ebf;" edge="1" parent="1" source="-zEk0gGxqN8G2U8qDTxE-4" target="-zEk0gGxqN8G2U8qDTxE-14">
          <mxGeometry relative="1" as="geometry" />
        </mxCell>
        <mxCell id="-zEk0gGxqN8G2U8qDTxE-18" value="Synced Files" style="image;html=1;image=img/lib/clip_art/general/Full_Folder_128x128.png" vertex="1" parent="1">
          <mxGeometry y="5" width="57" height="40" as="geometry" />
        </mxCell>
        <mxCell id="-zEk0gGxqN8G2U8qDTxE-3" value="Flask Instance" style="verticalLabelPosition=bottom;html=1;verticalAlign=top;align=center;strokeColor=none;fillColor=#00BEF2;shape=mxgraph.azure.website_generic;pointerEvents=1;" vertex="1" parent="1">
          <mxGeometry x="600" y="470" width="50" height="42.5" as="geometry" />
        </mxCell>
        <mxCell id="-zEk0gGxqN8G2U8qDTxE-21" style="rounded=0;orthogonalLoop=1;jettySize=auto;html=1;" edge="1" parent="1" source="-zEk0gGxqN8G2U8qDTxE-20" target="-zEk0gGxqN8G2U8qDTxE-3">
          <mxGeometry relative="1" as="geometry" />
        </mxCell>
        <mxCell id="-zEk0gGxqN8G2U8qDTxE-20" value="Synced Files" style="image;html=1;image=img/lib/clip_art/general/Full_Folder_128x128.png" vertex="1" parent="1">
          <mxGeometry x="600" y="610" width="57" height="40" as="geometry" />
        </mxCell>
        <mxCell id="-zEk0gGxqN8G2U8qDTxE-23" style="edgeStyle=orthogonalEdgeStyle;rounded=0;orthogonalLoop=1;jettySize=auto;html=1;entryX=-0.187;entryY=0.5;entryDx=0;entryDy=0;entryPerimeter=0;" edge="1" parent="1" source="-zEk0gGxqN8G2U8qDTxE-18" target="-zEk0gGxqN8G2U8qDTxE-9">
          <mxGeometry relative="1" as="geometry" />
        </mxCell>
      </root>
    </mxGraphModel>
  </diagram>
</mxfile>
